<?xml version="1.0" encoding="utf-8"?>
<!-- Generator: Adobe Illustrator 24.0.0, SVG Export Plug-In . SVG Version: 6.00 Build 0)  -->
<svg version="1.1" id="Capa_1" xmlns="http://www.w3.org/2000/svg" xmlns:xlink="http://www.w3.org/1999/xlink" x="0px" y="0px"
	 viewBox="0 0 16 16" style="enable-background:new 0 0 16 16;" xml:space="preserve">
<path d="M16,8c0,2.1-0.8,4.2-2.3,5.7C12.2,15.2,10.1,16,8,16c-2.1,0-4.2-0.8-5.7-2.3C0.8,12.2,0,10.1,0,8c0-2.1,0.8-4.2,2.3-5.7
	C3.8,0.8,5.9,0,8,0c2.1,0,4.2,0.8,5.7,2.3C15.2,3.8,16,5.9,16,8z M8,4C7.9,4,7.7,4,7.6,4.1S7.4,4.2,7.3,4.3C7.2,4.4,7.2,4.5,7.1,4.6
	c0,0.1-0.1,0.2,0,0.4l0.3,3.5c0,0.1,0.1,0.3,0.2,0.4C7.7,9,7.9,9,8,9C8.1,9,8.3,9,8.4,8.9c0.1-0.1,0.2-0.2,0.2-0.4L8.9,5
	c0-0.1,0-0.3,0-0.4c0-0.1-0.1-0.2-0.2-0.3C8.6,4.2,8.5,4.1,8.4,4.1S8.1,4,8,4z M8,10c-0.3,0-0.5,0.1-0.7,0.3C7.1,10.5,7,10.7,7,11
	s0.1,0.5,0.3,0.7C7.5,11.9,7.7,12,8,12s0.5-0.1,0.7-0.3C8.9,11.5,9,11.3,9,11s-0.1-0.5-0.3-0.7C8.5,10.1,8.3,10,8,10z"/>
</svg>
